<svg height="512" viewBox="0 0 64 64" width="512" xmlns="http://www.w3.org/2000/svg"><g id="Fill_Outline" data-name="Fill Outline"><path d="m32.22 19a2 2 0 0 0 -2.22 1.78l-.86 7.75-5.81 2a1.91 1.91 0 0 0 -.72.45h-.61v-.42a5 5 0 1 0 -4 0v.44h-1a4.46 4.46 0 0 0 -1.3.37l-5.25 4.16-5.15-.78a2 2 0 0 0 -.92 3.88 1.67 1.67 0 0 0 .32.08l6 .91a2 2 0 0 0 1.54-.41l2.76-2.21v14.9l-8.11 5.44a2 2 0 1 0 2.22 3.32l9-6a2 2 0 0 0 .89-1.66v-8h2.21l5.79 5.83v8.17a2 2 0 0 0 4 0v-9a2 2 0 0 0 -.58-1.41l-5.42-5.45v-8.93l6.66-2.32a2 2 0 0 0 1.34-1.67l1-9a2 2 0 0 0 -1.78-2.22z" fill="#f9e109"/><path d="m33.48 19.67.14.16z" fill="#fcbc04"/><path d="m33.71 20 .09.16z" fill="#fcbc04"/><path d="m33.87 20.32.06.15z" fill="#fcbc04"/><path d="m34 20.84a.68.68 0 0 0 0-.14.68.68 0 0 1 0 .14z" fill="#fcbc04"/><path d="m33.39 19.57-.18-.15z" fill="#fcbc04"/><path d="m32.9 19.22a1.64 1.64 0 0 1 .22.14 1.64 1.64 0 0 0 -.22-.14z" fill="#fcbc04"/><path d="m32.56 19.08.27.11z" fill="#fcbc04"/><path d="m31.56 26.07 1-7a2 2 0 0 0 -2.56 1.71l-.86 7.75-5.81 2a1.91 1.91 0 0 0 -.72.45h-.61v-.42a5 5 0 0 0 2-1.56 6 6 0 0 1 -5.74-7.66 5 5 0 0 0 -.26 9.24v.42h-1a4.46 4.46 0 0 0 -1.3.37l-5.25 4.16-5.08-.77a2.06 2.06 0 0 0 -2.23 1.24 2 2 0 0 0 1.24 2.64 1.67 1.67 0 0 0 .32.08l6 .91a2 2 0 0 0 1.54-.41l2.76-2.22v14.9l-8 5.38a2.06 2.06 0 0 0 -.76 2.63 2 2 0 0 0 2.89.75l9-6a2 2 0 0 0 .87-1.66v-1a2 2 0 0 1 -2-2v-1a2 2 0 0 1 2-2v-2h2.21l5.79 5.83v8.06a2.07 2.07 0 0 0 1.66 2.11 2 2 0 0 0 2.34-2 2 2 0 0 1 -2-2v-4a2 2 0 0 1 2-2v-1a2 2 0 0 0 -.58-1.41l-5.42-5.45v-1.14a2 2 0 0 1 -2-2v-3a2 2 0 0 1 2-2v-.79l6.66-2.32a2 2 0 0 0 1.34-1.67l.23-2.22a1.7 1.7 0 0 1 -1.67-1.93z" fill="#fcbc04"/><path d="m58.66 11a2.07 2.07 0 0 0 -1.66 2.11v12.89a1 1 0 0 1 -1 1h-5v-.42a5 5 0 1 0 -4 0v.42h-.62a1.91 1.91 0 0 0 -.72-.45l-5.81-2-.85-7.66a2.08 2.08 0 0 0 -2-1.89 2 2 0 0 0 -2 2.22l1 9a2 2 0 0 0 1.33 1.67l6.67 2.32v8.93l-5.42 5.45a2 2 0 0 0 -.58 1.41v8.89a2.07 2.07 0 0 0 1.66 2.11 2 2 0 0 0 2.34-2v-8.17l5.79-5.83h2.21v17.89a2.07 2.07 0 0 0 1.66 2.11 2 2 0 0 0 2.34-2v-28h2a5 5 0 0 0 5-5v-13a2 2 0 0 0 -2.34-2z" fill="#f9e109"/><circle cx="5" cy="11" fill="#57b7eb" r="2"/><path d="m7 3h8v4h-8z" fill="#57b7eb"/><circle cx="13" cy="13" fill="#57b7eb" r="2"/><circle cx="42.88" cy="10.36" fill="#57b7eb" r="2"/><path d="m48.4 4.3h6v4h-6z" fill="#57b7eb" transform="matrix(.84 .54 -.54 .84 11.45 -26.65)"/><circle cx="24.92" cy="10.69" fill="#57b7eb" r="2"/><path d="m6 12a2 2 0 0 1 -2-2 2 2 0 0 1 .18-.82 2 2 0 1 0 2.64 2.64 2 2 0 0 1 -.82.18z" fill="#4891d3"/><path d="m14 14a2 2 0 0 1 -2-2 2 2 0 0 1 .18-.82 2 2 0 1 0 2.64 2.64 2 2 0 0 1 -.82.18z" fill="#4891d3"/><path d="m9 3h-2v4h8v-2h-4a2 2 0 0 1 -2-2z" fill="#4891d3"/><path d="m42.8 11a2 2 0 0 1 -.73-2.51 2 2 0 1 0 2.49 2.9 2 2 0 0 0 .13-.25 2 2 0 0 1 -1.89-.14z" fill="#4891d3"/><path d="m51.48 6.45a2 2 0 0 1 -.61-2.76v-.07l-1-.62-2.08 3.37 5.06 3.23 1-1.62z" fill="#4891d3"/><path d="m24.85 11.37a2 2 0 0 1 -.74-2.51 2 2 0 0 0 -.87.75 2 2 0 0 0 3.37 2.15 2 2 0 0 0 .13-.25 2 2 0 0 1 -1.89-.14z" fill="#4891d3"/><path d="m59 22v-11a2 2 0 0 0 -.34 0 2.07 2.07 0 0 0 -1.66 2.11v12.89a1 1 0 0 1 -1 1h-5v-.42a5 5 0 0 0 2.59-2.58 5.87 5.87 0 0 1 -.59 0 6 6 0 0 1 -6-6 5.68 5.68 0 0 1 0-.59 5 5 0 0 0 0 9.17v.42h-.62a1.91 1.91 0 0 0 -.72-.45l-5.81-2-.23-2a2 2 0 0 1 -1.87-1.76l-.64-5.79h-.11a2 2 0 0 0 -2 2.22l1 9a2 2 0 0 0 1.33 1.67l6.67 2.32v8.93l-5.42 5.45a2 2 0 0 0 -.58 1.41v8.89a2.07 2.07 0 0 0 1.66 2.11 2 2 0 0 0 2.34-2v-8.17l5.79-5.83h2.21v17.89a2.07 2.07 0 0 0 1.66 2.11 2 2 0 0 0 2.34-2v-.18a3 3 0 0 1 -2-2.82v-21a2 2 0 0 1 2-2v-2h2a5 5 0 0 0 5-5v-1.18a3 3 0 0 1 -2-2.82z" fill="#fcbc04"/><g fill="#39519d"><path d="m33.27 27.69a1 1 0 0 0 -1.11.89l-.16 1.53a1 1 0 0 1 -.66.83l-6.66 2.32a1 1 0 0 0 -.67 1v8.93a1 1 0 0 0 .29.71l5.42 5.44a1 1 0 0 1 .28.66v9a1 1 0 0 1 -2 0v-8.17a1 1 0 0 0 -.29-.71l-5.79-5.83a1 1 0 0 0 -.71-.29h-2.21a1 1 0 0 0 -1 1v8a1 1 0 0 1 -.45.83l-9 6a1 1 0 0 1 -1.38-.28 1 1 0 0 1 .28-1.38l8.1-5.41a1 1 0 0 0 .45-.83v-6.93a1 1 0 0 0 -2 0v6.39l-7.66 5.11a3 3 0 0 0 1.66 5.5 3 3 0 0 0 1.66-.5l9-6a3 3 0 0 0 1.34-2.5v-7h.79l5.21 5.24v7.76a3 3 0 0 0 6 0v-9a3 3 0 0 0 -.87-2.12l-5.13-5.15v-7.81l6-2.09a3 3 0 0 0 2-2.5l.17-1.53a1 1 0 0 0 -.9-1.11z"/><path d="m12.88 40 1.12-.9v1.9a1 1 0 0 0 2 0v-4a1 1 0 0 0 -.57-.9 1 1 0 0 0 -1 .11l-2.74 2.18a1 1 0 0 1 -.77.21l-6-.91h-.16a1 1 0 0 1 -.76-1.11 1 1 0 0 1 .4-.65 1 1 0 0 1 .74-.19l5.15.78a1 1 0 0 0 .77-.2l5.14-4.09a3.47 3.47 0 0 1 .8-.23h1a1 1 0 0 0 1-1v-.42a1 1 0 0 0 -.6-.92 4 4 0 1 1 3.2 0 1 1 0 0 0 -.6.92v.42a1 1 0 0 0 1 1h.62a1 1 0 0 0 .69-.28 1 1 0 0 1 .36-.23l5.81-2a1 1 0 0 0 .67-.83l.85-7.77a1 1 0 0 1 1.1-.88 1 1 0 0 0 1.1-.89 1 1 0 0 0 -.88-1.1 3 3 0 0 0 -3.32 2.65l-.79 7.12-2.93 1a6 6 0 1 0 -9.52 1.45l-.49.19-.22.13-4.9 3.9-4.72-.71a3 3 0 0 0 -1.38 5.81 3.74 3.74 0 0 0 .48.12l6 .91a3 3 0 0 0 2.35-.59z"/><path d="m60.94 10.71a3 3 0 0 0 -2.44-.71 3.09 3.09 0 0 0 -2.5 3.11v12.89h-2.53a6.05 6.05 0 0 0 1.44-5 6 6 0 0 0 -4.63-4.82 6.07 6.07 0 0 0 -5.06 1.21 6 6 0 0 0 -1.52 7.47l-2.93-1-.78-7a3.09 3.09 0 0 0 -2.99-2.86 3 3 0 0 0 -2.22 1 3 3 0 0 0 -.78 2.33l1 9a3 3 0 0 0 2 2.5l6 2.09v7.81l-5.13 5.15a3 3 0 0 0 -.87 2.12v8.89a3.09 3.09 0 0 0 2.5 3.11 3 3 0 0 0 3.5-3v-7.76l5.21-5.24h.79v16.89a3.09 3.09 0 0 0 2.5 3.11 2.81 2.81 0 0 0 .5 0 3 3 0 0 0 3-3v-24a1 1 0 0 0 -2 0v24a1 1 0 0 1 -1.17 1 1.09 1.09 0 0 1 -.83-1.1v-17.9a1 1 0 0 0 -1-1h-2.21a1 1 0 0 0 -.71.29l-5.79 5.83a1 1 0 0 0 -.29.71v8.17a1 1 0 0 1 -1.17 1 1.09 1.09 0 0 1 -.83-1.1v-8.9a1 1 0 0 1 .29-.71l5.42-5.44a1 1 0 0 0 .29-.71v-8.93a1 1 0 0 0 -.67-.95l-6.66-2.32a1 1 0 0 1 -.66-.83l-1-9a1 1 0 0 1 .24-.77 1 1 0 0 1 .75-.34 1.11 1.11 0 0 1 1 1l.84 7.64a1 1 0 0 0 .67.83l5.81 2a1 1 0 0 1 .36.23 1 1 0 0 0 .69.28h.63a1 1 0 0 0 1-1v-.42a1 1 0 0 0 -.6-.92 4 4 0 1 1 3.2 0 1 1 0 0 0 -.6.92v.44a1 1 0 0 0 1 1h5a2 2 0 0 0 2-2v-12.89a1.09 1.09 0 0 1 .82-1.1 1 1 0 0 1 .83.23 1 1 0 0 1 .35.76v13a4 4 0 0 1 -4 4h-2a1 1 0 0 0 0 2h2a6 6 0 0 0 6-6v-13a3 3 0 0 0 -1.06-2.29z"/><path d="m5 14a3 3 0 0 0 3-3v-3h6v2.18a3 3 0 1 0 2 2.82v-10a1 1 0 0 0 -1-1h-8a1 1 0 0 0 -1 1v5.18a3 3 0 1 0 -1 5.82zm8 0a1 1 0 1 1 1-1 1 1 0 0 1 -1 1zm-5-10h6v2h-6zm-3 6a1 1 0 1 1 -1 1 1 1 0 0 1 1-1z"/><path d="m41.26 12.88a2.94 2.94 0 0 0 1.61.48 3.09 3.09 0 0 0 2.54-1.36l2.68-4.22 4.22 2.69a1 1 0 0 0 .54.16 1 1 0 0 0 .84-.46l2.15-3.38a1 1 0 0 0 .16-.79 1.05 1.05 0 0 0 -.44-.63l-5.08-3.21a1 1 0 0 0 -1.38.3l-2.1 3.37-1.76 2.69a2.9 2.9 0 0 0 -.75-.69 3 3 0 0 0 -3.23 5.05zm9-8.5 3.37 2.15-1.09 1.69-3.37-2.15zm-8.26 5.44a1 1 0 0 1 .85-.46 1.08 1.08 0 0 1 .54.15 1 1 0 0 1 .43.63 1 1 0 0 1 -.13.75 1 1 0 0 1 -1.38.31 1 1 0 0 1 -.31-1.38z"/><path d="m22 11.33a3 3 0 0 0 2.92 2.36 3.59 3.59 0 0 0 .65-.07 3 3 0 0 0 1.88-1.31l3.23-5.06a1 1 0 0 0 -.3-1.38 1 1 0 0 0 -1.38.3l-1.72 2.68a2.88 2.88 0 0 0 -.74-.69 3 3 0 0 0 -4.14.91 2.91 2.91 0 0 0 -.4 2.26zm2.08-1.18a1 1 0 0 1 .63-.44.78.78 0 0 1 .22 0 1 1 0 0 1 .84 1.53 1 1 0 0 1 -.63.44 1 1 0 0 1 -1.06-1.51z"/><path d="m36 10a1 1 0 0 0 1-1v-4a1 1 0 0 0 -2 0v4a1 1 0 0 0 1 1z"/><path d="m5 22v3a1 1 0 0 0 2 0v-3a1 1 0 0 0 -2 0z"/><circle cx="26" cy="18" r="1"/><circle cx="21" cy="4" r="1"/></g></g></svg>